<svg width="800" height="288" viewBox="0 0 800 288" fill="none" xmlns="http://www.w3.org/2000/svg">
  <rect width="800" height="288" fill="#F3F4F6"/>
  <rect x="150" y="62" width="500" height="164" rx="18" fill="#E5E7EB"/>
  <rect x="290" y="33" width="220" height="30" rx="15" fill="#D1D5DB"/>
  <rect x="170" y="95" width="460" height="96" rx="20" fill="#C7D2FE" opacity="0.6"/>
  <rect x="338" y="112" width="124" height="62" rx="14" fill="#A78BFA" opacity="0.7"/>
  <path d="M220 200L320 260H480L580 200V225H220V200Z" fill="#D1D5DB"/>
  <path d="M250 125H550" stroke="#4B5563" stroke-width="3" stroke-linecap="round" stroke-dasharray="10 8"/>
  <path d="M400 82V205" stroke="#4B5563" stroke-width="3" stroke-linecap="round" stroke-dasharray="10 8"/>
  <rect x="200" y="78" width="80" height="28" rx="14" fill="#EDE9FE"/>
  <rect x="520" y="78" width="80" height="28" rx="14" fill="#EDE9FE"/>
  <rect x="200" y="181" width="80" height="28" rx="14" fill="#EDE9FE"/>
  <rect x="520" y="181" width="80" height="28" rx="14" fill="#EDE9FE"/>
  <text x="400" y="145" text-anchor="middle" font-family="Arial, sans-serif" font-size="18" fill="#111827" font-weight="600">Escenario</text>
</svg>
